<svg width="21" height="15" viewBox="0 0 21 15" fill="none" xmlns="http://www.w3.org/2000/svg">
<path d="M8.31982 2.20793L6.54948 0.752975L0.845026 7.64235L2.61537 9.09731L8.31982 2.20793Z" fill="#F76706"/>
<path d="M2.30244 5.85651L0.842041 7.62026L9.17441 14.4682L10.6348 12.7045L2.30244 5.85651Z" fill="#F76706"/>
<path d="M14.8751 7.5848L13.1048 6.12984L7.40468 13.014L9.17502 14.4689L14.8751 7.5848Z" fill="#F76706"/>
<path d="M13.4294 12.4382L15.1997 13.8932L20.4005 7.61214L18.6301 6.15719L13.4294 12.4382Z" fill="#F76706"/>
<path d="M19.3816 8.84278L20.842 7.07904L12.5097 0.231079L11.0493 1.99482L19.3816 8.84278Z" fill="#F76706"/>
<path d="M6.86678 7.04516L8.63712 8.50011L13.8379 2.21907L12.0675 0.764116L6.86678 7.04516Z" fill="#F76706"/>
</svg>
